<svg width="166" height="28" viewBox="0 0 166 28" fill="none" xmlns="http://www.w3.org/2000/svg">
<g clip-path="url(#clip0_1_8381)">
<path d="M162.977 12.0226C164.235 12.0226 165.252 11.0026 165.252 9.74457C165.252 8.4865 164.235 7.46667 162.977 7.46667C161.721 7.46667 160.702 8.4865 160.702 9.74457C160.702 11.0026 161.721 12.0226 162.977 12.0226Z" fill="#0B3B2D"/>
<path d="M43.2023 20.6812C42.1903 20.6812 41.2576 20.5226 40.4041 20.2052C39.5628 19.8757 38.825 19.4119 38.1911 18.8138C37.5692 18.2158 37.0816 17.514 36.7279 16.7084C36.3866 15.9029 36.2158 15.018 36.2158 14.0538C36.2158 13.0897 36.3866 12.2047 36.7279 11.3992C37.0816 10.5937 37.5754 9.89186 38.2094 9.29385C38.8433 8.69577 39.5872 8.23812 40.4406 7.92073C41.2942 7.5912 42.233 7.42643 43.2572 7.42643C44.3911 7.42643 45.4092 7.61565 46.3115 7.99396C47.226 8.37233 47.9941 8.92157 48.616 9.64167L46.7139 11.3992C46.2505 10.9111 45.7445 10.551 45.1959 10.3191C44.6472 10.075 44.0498 9.9529 43.4035 9.9529C42.7817 9.9529 42.2147 10.0505 41.7026 10.2458C41.1905 10.4411 40.7454 10.7218 40.3675 11.088C40.0017 11.4541 39.7152 11.8874 39.5079 12.3878C39.3129 12.8883 39.2152 13.4436 39.2152 14.0538C39.2152 14.6519 39.3129 15.2011 39.5079 15.7016C39.7152 16.2019 40.0017 16.6414 40.3675 17.0197C40.7454 17.3858 41.1844 17.6666 41.6843 17.8618C42.1964 18.0571 42.7572 18.1548 43.367 18.1548C43.9522 18.1548 44.5192 18.0632 45.0679 17.8801C45.6287 17.6849 46.1713 17.3614 46.6956 16.9098L48.3782 19.0518C47.6833 19.5766 46.8724 19.9794 45.9458 20.2601C45.0313 20.5409 44.1168 20.6812 43.2023 20.6812ZM45.6714 18.6674V13.8524H48.3782V19.0518L45.6714 18.6674ZM50.1977 20.4616V6.8772H53.0508V20.4616H50.1977ZM59.6493 20.608C58.6006 20.608 57.6679 20.3883 56.851 19.9489C56.0463 19.5096 55.4062 18.9115 54.9306 18.1548C54.4673 17.3858 54.2356 16.5132 54.2356 15.5368C54.2356 14.5481 54.4673 13.6755 54.9306 12.9188C55.4062 12.1498 56.0463 11.5518 56.851 11.1246C57.6679 10.6852 58.6006 10.4656 59.6493 10.4656C60.6856 10.4656 61.6124 10.6852 62.4294 11.1246C63.2463 11.5518 63.886 12.1437 64.3495 12.9004C64.8131 13.6572 65.0446 14.5359 65.0446 15.5368C65.0446 16.5132 64.8131 17.3858 64.3495 18.1548C63.886 18.9115 63.2463 19.5096 62.4294 19.9489C61.6124 20.3883 60.6856 20.608 59.6493 20.608ZM59.6493 18.2646C60.1248 18.2646 60.5516 18.1547 60.9296 17.9351C61.3075 17.7154 61.6062 17.4041 61.8257 17.0014C62.0452 16.5864 62.1549 16.0982 62.1549 15.5368C62.1549 14.9631 62.0452 14.4749 61.8257 14.0721C61.6062 13.6694 61.3075 13.3581 60.9296 13.1384C60.5516 12.9187 60.1248 12.8089 59.6493 12.8089C59.1738 12.8089 58.747 12.9187 58.369 13.1384C57.9911 13.3581 57.6862 13.6694 57.4546 14.0721C57.2351 14.4749 57.1253 14.9631 57.1253 15.5368C57.1253 16.0982 57.2351 16.5864 57.4546 17.0014C57.6862 17.4041 57.9911 17.7154 58.369 17.9351C58.747 18.1547 59.1738 18.2646 59.6493 18.2646ZM72.0365 20.608C71.1703 20.608 70.4268 20.4249 69.8052 20.0587C69.183 19.6926 68.7076 19.1372 68.3784 18.3928C68.0493 17.636 67.8844 16.684 67.8844 15.5368C67.8844 14.3772 68.0549 13.4252 68.3965 12.6807C68.7499 11.9363 69.2377 11.3809 69.8599 11.0147C70.4815 10.6486 71.2071 10.4656 72.0365 10.4656C72.963 10.4656 73.7918 10.673 74.5235 11.088C75.267 11.5029 75.8526 12.0887 76.2794 12.8456C76.7181 13.6023 76.9377 14.4994 76.9377 15.5368C76.9377 16.562 76.7181 17.4529 76.2794 18.2097C75.8526 18.9664 75.267 19.5583 74.5235 19.9856C73.7918 20.4005 72.963 20.608 72.0365 20.608ZM66.2199 20.4616V6.8772H69.0734V12.6076L68.8905 15.5184L68.9453 18.4477V20.4616H66.2199ZM71.5424 18.2646C72.0178 18.2646 72.4384 18.1547 72.8043 17.9351C73.1826 17.7154 73.4813 17.4041 73.7003 17.0014C73.9324 16.5864 74.0481 16.0982 74.0481 15.5368C74.0481 14.9631 73.9324 14.4749 73.7003 14.0721C73.4813 13.6694 73.1826 13.3581 72.8043 13.1384C72.4384 12.9187 72.0178 12.8089 71.5424 12.8089C71.067 12.8089 70.6402 12.9187 70.2619 13.1384C69.8842 13.3581 69.5855 13.6694 69.3659 14.0721C69.1462 14.4749 69.0367 14.9631 69.0367 15.5368C69.0367 16.0982 69.1462 16.5864 69.3659 17.0014C69.5855 17.4041 69.8842 17.7154 70.2619 17.9351C70.6402 18.1547 71.067 18.2646 71.5424 18.2646ZM83.9906 20.4616V18.5392L83.8077 18.1181V14.6763C83.8077 14.066 83.6191 13.59 83.2408 13.2483C82.875 12.9066 82.3081 12.7357 81.5403 12.7357C81.0158 12.7357 80.4975 12.8211 79.9854 12.992C79.4857 13.1506 79.0589 13.3703 78.7054 13.6511L77.6813 11.6556C78.2176 11.2772 78.8635 10.9843 79.6195 10.7767C80.3755 10.5693 81.1439 10.4656 81.9242 10.4656C83.4238 10.4656 84.5886 10.8195 85.4174 11.5274C86.2468 12.2352 86.6612 13.3398 86.6612 14.8411V20.4616H83.9906ZM80.9915 20.608C80.223 20.608 79.5647 20.4798 79.0159 20.2236C78.4678 19.9551 78.0471 19.5949 77.7541 19.1434C77.4616 18.6918 77.3154 18.1852 77.3154 17.6238C77.3154 17.038 77.4554 16.5254 77.736 16.086C78.0285 15.6466 78.4858 15.3049 79.1074 15.0607C79.7296 14.8044 80.5404 14.6763 81.5403 14.6763H84.1555V16.3423H81.8508C81.18 16.3423 80.7171 16.4521 80.4607 16.6718C80.2168 16.8916 80.0955 17.1661 80.0955 17.4957C80.0955 17.8618 80.2355 18.1548 80.5161 18.3744C80.8086 18.5819 81.2049 18.6857 81.7046 18.6857C82.1799 18.6857 82.6068 18.5758 82.9851 18.3561C83.3628 18.1243 83.6372 17.7886 83.8077 17.3492L84.247 18.6674C84.0398 19.302 83.6614 19.7841 83.1133 20.1137C82.5645 20.4432 81.857 20.608 80.9915 20.608ZM88.5117 20.4616V6.8772H91.3646V20.4616H88.5117ZM93.4826 20.4616V7.64614H95.9329L103.487 16.8732H102.298V7.64614H105.224V20.4616H102.792L95.2198 11.2344H96.4089V20.4616H93.4826ZM112.002 20.608C110.953 20.608 110.021 20.3883 109.204 19.9489C108.4 19.5096 107.759 18.9115 107.284 18.1548C106.82 17.3858 106.589 16.5132 106.589 15.5368C106.589 14.5481 106.82 13.6755 107.284 12.9188C107.759 12.1498 108.4 11.5518 109.204 11.1246C110.021 10.6852 110.953 10.4656 112.002 10.4656C113.038 10.4656 113.966 10.6852 114.783 11.1246C115.599 11.5518 116.239 12.1437 116.703 12.9004C117.166 13.6572 117.398 14.5359 117.398 15.5368C117.398 16.5132 117.166 17.3858 116.703 18.1548C116.239 18.9115 115.599 19.5096 114.783 19.9489C113.966 20.3883 113.038 20.608 112.002 20.608ZM112.002 18.2646C112.478 18.2646 112.905 18.1547 113.283 17.9351C113.66 17.7154 113.959 17.4041 114.179 17.0014C114.399 16.5864 114.508 16.0982 114.508 15.5368C114.508 14.9631 114.399 14.4749 114.179 14.0721C113.959 13.6694 113.66 13.3581 113.283 13.1384C112.905 12.9187 112.478 12.8089 112.002 12.8089C111.527 12.8089 111.1 12.9187 110.722 13.1384C110.345 13.3581 110.039 13.6694 109.808 14.0721C109.588 14.4749 109.479 14.9631 109.479 15.5368C109.479 16.0982 109.588 16.5864 109.808 17.0014C110.039 17.4041 110.345 17.7154 110.722 17.9351C111.1 18.1547 111.527 18.2646 112.002 18.2646ZM131.175 10.4656C131.955 10.4656 132.643 10.6242 133.242 10.9416C133.851 11.2466 134.326 11.7226 134.668 12.3696C135.021 13.0042 135.199 13.8219 135.199 14.8227V20.4616H132.345V15.2621C132.345 14.4687 132.181 13.8829 131.852 13.5046C131.523 13.1263 131.059 12.9371 130.462 12.9371C130.046 12.9371 129.675 13.0348 129.346 13.23C129.017 13.4131 128.761 13.6938 128.578 14.0721C128.395 14.4505 128.303 14.9326 128.303 15.5184V20.4616H125.451V15.2621C125.451 14.4687 125.286 13.8829 124.956 13.5046C124.639 13.1263 124.182 12.9371 123.585 12.9371C123.169 12.9371 122.799 13.0348 122.469 13.23C122.14 13.4131 121.884 13.6938 121.701 14.0721C121.518 14.4505 121.427 14.9326 121.427 15.5184V20.4616H118.574V10.612H121.299V13.3032L120.787 12.516C121.128 11.8448 121.61 11.3382 122.232 10.9964C122.865 10.6425 123.585 10.4656 124.39 10.4656C125.291 10.4656 126.078 10.6974 126.749 11.1612C127.431 11.6127 127.883 12.3085 128.102 13.2483L127.096 12.9737C127.425 12.2047 127.95 11.5945 128.669 11.1429C129.401 10.6913 130.236 10.4656 131.175 10.4656ZM143.06 20.4616V18.5392L142.877 18.1181V14.6763C142.877 14.066 142.688 13.59 142.31 13.2483C141.944 12.9066 141.378 12.7357 140.609 12.7357C140.084 12.7357 139.567 12.8211 139.055 12.992C138.555 13.1506 138.127 13.3703 137.774 13.6511L136.75 11.6556C137.286 11.2772 137.932 10.9843 138.689 10.7767C139.444 10.5693 140.212 10.4656 140.993 10.4656C142.493 10.4656 143.657 10.8195 144.486 11.5274C145.315 12.2352 145.73 13.3398 145.73 14.8411V20.4616H143.06ZM140.06 20.608C139.292 20.608 138.634 20.4798 138.085 20.2236C137.537 19.9551 137.116 19.5949 136.823 19.1434C136.53 18.6918 136.384 18.1852 136.384 17.6238C136.384 17.038 136.524 16.5254 136.805 16.086C137.097 15.6466 137.555 15.3049 138.177 15.0607C138.798 14.8044 139.609 14.6763 140.609 14.6763H143.224V16.3423H140.92C140.249 16.3423 139.786 16.4521 139.53 16.6718C139.286 16.8916 139.164 17.1661 139.164 17.4957C139.164 17.8618 139.304 18.1548 139.585 18.3744C139.877 18.5819 140.274 18.6857 140.774 18.6857C141.249 18.6857 141.675 18.5758 142.054 18.3561C142.432 18.1243 142.706 17.7886 142.877 17.3492L143.316 18.6674C143.109 19.302 142.731 19.7841 142.182 20.1137C141.633 20.4432 140.925 20.608 140.06 20.608ZM151.876 20.608C150.95 20.608 150.115 20.4005 149.371 19.9856C148.628 19.5583 148.036 18.9664 147.597 18.2097C147.17 17.4529 146.956 16.562 146.956 15.5368C146.956 14.4994 147.17 13.6023 147.597 12.8456C148.036 12.0887 148.628 11.5029 149.371 11.088C150.115 10.673 150.95 10.4656 151.876 10.4656C152.706 10.4656 153.431 10.6486 154.053 11.0147C154.674 11.3809 155.157 11.9363 155.498 12.6807C155.84 13.4252 156.01 14.3772 156.01 15.5368C156.01 16.684 155.845 17.636 155.516 18.3928C155.187 19.1372 154.711 19.6926 154.09 20.0587C153.48 20.4249 152.742 20.608 151.876 20.608ZM152.37 18.2646C152.834 18.2646 153.255 18.1547 153.632 17.9351C154.011 17.7154 154.309 17.4041 154.528 17.0014C154.761 16.5864 154.876 16.0982 154.876 15.5368C154.876 14.9631 154.761 14.4749 154.528 14.0721C154.309 13.6694 154.011 13.3581 153.632 13.1384C153.255 12.9187 152.834 12.8089 152.37 12.8089C151.895 12.8089 151.469 12.9187 151.09 13.1384C150.712 13.3581 150.408 13.6694 150.176 14.0721C149.956 14.4749 149.847 14.9631 149.847 15.5368C149.847 16.0982 149.956 16.5864 150.176 17.0014C150.408 17.4041 150.712 17.7154 151.09 17.9351C151.469 18.1547 151.895 18.2646 152.37 18.2646ZM154.949 20.4616V18.4477L155.004 15.5184L154.821 12.6076V6.8772H157.674V20.4616H154.949Z" fill="#0B3B2D"/>
<path fill-rule="evenodd" clip-rule="evenodd" d="M13.9859 0C21.7102 0 27.9719 6.26802 27.9719 14C27.9719 21.732 21.7102 28 13.9859 28C6.26173 28 0 21.732 0 14C0 6.26802 6.26173 0 13.9859 0ZM13.4804 1.04761C11.8849 1.27238 10.3657 2.55575 9.18624 4.70218C8.84414 5.32478 8.53546 6.01262 8.26647 6.75534C9.87012 6.35189 11.6317 6.11409 13.4804 6.07731V1.04761ZM7.08444 7.09159C7.41894 6.04071 7.82811 5.07388 8.30038 4.21445C8.88502 3.15041 9.57886 2.23157 10.3606 1.52584C6.10962 2.76166 2.75889 6.11575 1.52431 10.371C2.22932 9.58844 3.14726 8.89392 4.21024 8.30872C5.06879 7.83602 6.03463 7.42635 7.08444 7.09159ZM6.7485 8.27475C6.34555 9.88002 6.10796 11.6434 6.07121 13.4939H1.04656C1.27111 11.8968 2.55319 10.376 4.69746 9.19551C5.31944 8.85304 6.00659 8.54404 6.7485 8.27475ZM7.08251 13.4939C7.12426 11.4744 7.41465 9.57836 7.89519 7.90316C9.56878 7.42212 11.463 7.13135 13.4804 7.08954V9.27559C12.7277 11.2043 11.1927 12.7409 9.26576 13.4939H7.08251ZM6.07121 14.5061H1.04656C1.27111 16.1032 2.55319 17.6239 4.69746 18.8045C5.31944 19.147 6.00659 19.4559 6.7485 19.7253C6.34555 18.12 6.10796 16.3566 6.07121 14.5061ZM7.89519 20.0969C7.41465 18.4216 7.12426 16.5256 7.08251 14.5061H9.26576C11.1927 15.2591 12.7279 16.7957 13.4804 18.7245V20.9105C11.463 20.8687 9.56878 20.5778 7.89519 20.0969ZM7.08444 20.9085C6.03463 20.5737 5.06879 20.164 4.21024 19.6913C3.14726 19.1061 2.22932 18.4115 1.52431 17.629C2.75889 21.8842 6.10962 25.2383 10.3606 26.4741C9.57886 25.7684 8.88502 24.8496 8.30038 23.7854C7.82811 22.9261 7.41894 21.9593 7.08444 20.9085ZM13.4804 26.9524C11.8849 26.7276 10.3657 25.4442 9.18624 23.2978C8.84414 22.6753 8.53546 21.9873 8.26647 21.2447C9.87012 21.6481 11.6317 21.8859 13.4804 21.9227V26.9524ZM17.6113 26.4741C18.393 25.7684 19.087 24.8496 19.6716 23.7854C20.1438 22.9261 20.553 21.9593 20.8875 20.9085C21.9373 20.5737 22.9031 20.164 23.7617 19.6913C24.8246 19.1061 25.7426 18.4115 26.4476 17.629C25.213 21.8842 21.8623 25.2383 17.6113 26.4741ZM19.7055 21.2447C19.4364 21.9873 19.1277 22.6753 18.7856 23.2978C17.6064 25.4442 16.0871 26.7276 14.4915 26.9524V21.9227C16.3402 21.8859 18.1018 21.6481 19.7055 21.2447ZM21.2234 19.7253C21.9653 19.4559 22.6525 19.147 23.2745 18.8045C25.4187 17.6239 26.7008 16.1032 26.9253 14.5061H21.9007C21.8639 16.3566 21.6264 18.12 21.2234 19.7253ZM20.8895 14.5061C20.8478 16.5256 20.5572 18.4216 20.0767 20.0969C18.4032 20.5778 16.509 20.8687 14.4915 20.9105V18.7261C15.2438 16.7966 16.7793 15.2594 18.7067 14.5061H20.8895ZM21.9007 13.4939H26.9253C26.7008 11.8968 25.4187 10.376 23.2745 9.19551C22.6525 8.85304 21.9653 8.54404 21.2234 8.27475C21.6264 9.88002 21.8639 11.6434 21.9007 13.4939ZM20.0767 7.90316C20.5572 9.57836 20.8478 11.4744 20.8895 13.4939H18.7067C16.7793 12.7406 15.2438 11.2034 14.4915 9.27397V7.08954C16.509 7.13135 18.4032 7.42212 20.0767 7.90316ZM20.8875 7.09159C21.9373 7.42635 22.9031 7.83602 23.7617 8.30872C24.8246 8.89392 25.7426 9.58844 26.4476 10.371C25.213 6.11575 21.8623 2.76166 17.6113 1.52584C18.393 2.23157 19.087 3.15041 19.6716 4.21445C20.1438 5.07388 20.553 6.04071 20.8875 7.09159ZM14.4915 1.04761C16.0871 1.27238 17.6064 2.55575 18.7856 4.70218C19.1277 5.32479 19.4364 6.01262 19.7055 6.75534C18.1018 6.35189 16.3402 6.11409 14.4915 6.07731V1.04761Z" fill="#0B3B2D"/>
</g>
<defs>
<clipPath id="clip0_1_8381">
<rect width="165.511" height="28" fill="white"/>
</clipPath>
</defs>
</svg>
