<svg width="1824" height="508" viewBox="0 0 1824 508" fill="none" xmlns="http://www.w3.org/2000/svg">
<rect width="1824" height="508" fill="#F9F9F9"/>
<path d="M431.004 252.556C434.319 252.556 436.999 249.913 436.999 246.653C436.999 243.393 434.319 240.75 431.004 240.75C427.694 240.75 425.01 243.393 425.01 246.653C425.01 249.913 427.694 252.556 431.004 252.556Z" fill="#0B3B2D"/>
<path d="M115.409 274.999C112.742 274.999 110.285 274.588 108.036 273.765C105.819 272.911 103.875 271.709 102.205 270.16C100.566 268.61 99.2812 266.791 98.3493 264.703C97.4499 262.616 97 260.323 97 257.824C97 255.326 97.4499 253.032 98.3493 250.945C99.2812 248.858 100.582 247.039 102.253 245.489C103.923 243.939 105.883 242.753 108.132 241.931C110.381 241.077 112.855 240.65 115.553 240.65C118.541 240.65 121.224 241.14 123.601 242.121C126.011 243.101 128.035 244.524 129.673 246.39L124.662 250.945C123.441 249.68 122.107 248.747 120.662 248.146C119.216 247.513 117.642 247.197 115.939 247.197C114.301 247.197 112.807 247.45 111.457 247.956C110.108 248.462 108.935 249.19 107.939 250.138C106.976 251.087 106.221 252.21 105.674 253.507C105.16 254.804 104.903 256.243 104.903 257.824C104.903 259.374 105.16 260.797 105.674 262.094C106.221 263.391 106.976 264.53 107.939 265.51C108.935 266.459 110.092 267.186 111.409 267.692C112.758 268.198 114.236 268.452 115.843 268.452C117.385 268.452 118.879 268.214 120.324 267.74C121.802 267.234 123.232 266.396 124.613 265.225L129.047 270.776C127.216 272.136 125.079 273.18 122.638 273.907C120.228 274.635 117.818 274.999 115.409 274.999ZM121.915 269.78V257.302H129.047V270.776L121.915 269.78ZM133.841 274.429V239.227H141.359V274.429H133.841ZM158.745 274.809C155.982 274.809 153.524 274.24 151.372 273.101C149.252 271.962 147.565 270.413 146.312 268.452C145.091 266.459 144.481 264.198 144.481 261.667C144.481 259.105 145.091 256.844 146.312 254.883C147.565 252.89 149.252 251.341 151.372 250.233C153.524 249.095 155.982 248.526 158.745 248.526C161.476 248.526 163.918 249.095 166.07 250.233C168.223 251.341 169.909 252.874 171.13 254.835C172.351 256.796 172.961 259.074 172.961 261.667C172.961 264.198 172.351 266.459 171.13 268.452C169.909 270.413 168.223 271.962 166.07 273.101C163.918 274.24 161.476 274.809 158.745 274.809ZM158.745 268.736C159.998 268.736 161.123 268.451 162.119 267.882C163.114 267.313 163.902 266.506 164.48 265.463C165.058 264.387 165.347 263.122 165.347 261.667C165.347 260.181 165.058 258.915 164.48 257.872C163.902 256.828 163.114 256.021 162.119 255.452C161.123 254.883 159.998 254.598 158.745 254.598C157.492 254.598 156.368 254.883 155.372 255.452C154.376 256.021 153.573 256.828 152.962 257.872C152.384 258.915 152.095 260.181 152.095 261.667C152.095 263.122 152.384 264.387 152.962 265.463C153.573 266.506 154.376 267.313 155.372 267.882C156.368 268.451 157.492 268.736 158.745 268.736ZM191.384 274.809C189.102 274.809 187.143 274.334 185.505 273.386C183.866 272.437 182.613 270.997 181.746 269.068C180.878 267.107 180.444 264.64 180.444 261.667C180.444 258.662 180.893 256.195 181.793 254.266C182.724 252.337 184.01 250.898 185.649 249.949C187.287 249 189.199 248.526 191.384 248.526C193.826 248.526 196.009 249.063 197.937 250.138C199.897 251.214 201.439 252.732 202.564 254.693C203.72 256.654 204.299 258.979 204.299 261.667C204.299 264.324 203.72 266.633 202.564 268.594C201.439 270.555 199.897 272.089 197.937 273.196C196.009 274.271 193.826 274.809 191.384 274.809ZM176.058 274.429V239.227H183.577V254.076L183.095 261.62L183.239 269.211V274.429H176.058ZM190.083 268.736C191.335 268.736 192.443 268.451 193.408 267.882C194.404 267.313 195.191 266.506 195.768 265.463C196.38 264.387 196.685 263.122 196.685 261.667C196.685 260.181 196.38 258.915 195.768 257.872C195.191 256.828 194.404 256.021 193.408 255.452C192.443 254.883 191.335 254.598 190.083 254.598C188.83 254.598 187.705 254.883 186.708 255.452C185.713 256.021 184.926 256.828 184.348 257.872C183.769 258.915 183.48 260.181 183.48 261.667C183.48 263.122 183.769 264.387 184.348 265.463C184.926 266.506 185.713 267.313 186.708 267.882C187.705 268.451 188.83 268.736 190.083 268.736ZM222.882 274.429V269.448L222.4 268.357V259.437C222.4 257.856 221.904 256.622 220.907 255.737C219.943 254.851 218.449 254.408 216.426 254.408C215.044 254.408 213.678 254.63 212.329 255.073C211.012 255.484 209.888 256.053 208.957 256.781L206.258 251.609C207.671 250.629 209.373 249.87 211.365 249.332C213.357 248.794 215.382 248.526 217.438 248.526C221.389 248.526 224.458 249.443 226.642 251.277C228.827 253.111 229.919 255.974 229.919 259.864V274.429H222.882ZM214.98 274.809C212.955 274.809 211.221 274.477 209.775 273.813C208.33 273.117 207.222 272.184 206.45 271.013C205.679 269.843 205.294 268.53 205.294 267.076C205.294 265.557 205.663 264.229 206.402 263.09C207.173 261.952 208.378 261.066 210.016 260.434C211.655 259.769 213.791 259.437 216.426 259.437H223.317V263.755H217.244C215.477 263.755 214.257 264.039 213.582 264.609C212.939 265.178 212.619 265.89 212.619 266.744C212.619 267.692 212.988 268.452 213.727 269.021C214.498 269.559 215.542 269.827 216.859 269.827C218.112 269.827 219.236 269.543 220.233 268.973C221.228 268.373 221.951 267.503 222.4 266.364L223.558 269.78C223.012 271.424 222.015 272.674 220.571 273.528C219.125 274.382 217.261 274.809 214.98 274.809ZM234.795 274.429V239.227H242.312V274.429H234.795ZM247.893 274.429V241.219H254.349L274.253 265.13H271.12V241.219H278.83V274.429H272.422L252.471 250.518H255.604V274.429H247.893ZM296.691 274.809C293.927 274.809 291.469 274.24 289.318 273.101C287.199 271.962 285.511 270.413 284.259 268.452C283.036 266.459 282.428 264.198 282.428 261.667C282.428 259.105 283.036 256.844 284.259 254.883C285.511 252.89 287.199 251.341 289.318 250.233C291.469 249.095 293.927 248.526 296.691 248.526C299.421 248.526 301.865 249.095 304.017 250.233C306.168 251.341 307.855 252.874 309.076 254.835C310.297 256.796 310.907 259.074 310.907 261.667C310.907 264.198 310.297 266.459 309.076 268.452C307.855 270.413 306.168 271.962 304.017 273.101C301.865 274.24 299.421 274.809 296.691 274.809ZM296.691 268.736C297.944 268.736 299.07 268.451 300.065 267.882C301.059 267.313 301.847 266.506 302.426 265.463C303.005 264.387 303.294 263.122 303.294 261.667C303.294 260.181 303.005 258.915 302.426 257.872C301.847 256.828 301.059 256.021 300.065 255.452C299.07 254.883 297.944 254.598 296.691 254.598C295.439 254.598 294.312 254.883 293.317 255.452C292.324 256.021 291.519 256.828 290.909 257.872C290.33 258.915 290.041 260.181 290.041 261.667C290.041 263.122 290.33 264.387 290.909 265.463C291.519 266.506 292.324 267.313 293.317 267.882C294.312 268.451 295.439 268.736 296.691 268.736ZM347.209 248.526C349.265 248.526 351.078 248.937 352.656 249.759C354.259 250.55 355.512 251.783 356.413 253.46C357.343 255.104 357.812 257.223 357.812 259.817V274.429H350.293V260.956C350.293 258.899 349.86 257.381 348.993 256.401C348.126 255.421 346.903 254.93 345.33 254.93C344.235 254.93 343.258 255.183 342.391 255.689C341.523 256.164 340.848 256.891 340.366 257.872C339.884 258.852 339.643 260.102 339.643 261.62V274.429H332.126V260.956C332.126 258.899 331.691 257.381 330.824 256.401C329.988 255.421 328.783 254.93 327.211 254.93C326.115 254.93 325.138 255.183 324.271 255.689C323.404 256.164 322.728 256.891 322.246 257.872C321.764 258.852 321.523 260.102 321.523 261.62V274.429H314.006V248.905H321.187V255.879L319.838 253.839C320.736 252.1 322.005 250.787 323.645 249.901C325.314 248.984 327.211 248.526 329.33 248.526C331.706 248.526 333.778 249.126 335.547 250.328C337.344 251.498 338.535 253.301 339.113 255.737L336.462 255.025C337.33 253.032 338.712 251.451 340.607 250.281C342.535 249.111 344.735 248.526 347.209 248.526ZM378.525 274.429V269.448L378.043 268.357V259.437C378.043 257.856 377.545 256.622 376.55 255.737C375.586 254.851 374.092 254.408 372.067 254.408C370.684 254.408 369.321 254.63 367.972 255.073C366.654 255.484 365.527 256.053 364.598 256.781L361.899 251.609C363.311 250.629 365.014 249.87 367.008 249.332C368.997 248.794 371.021 248.526 373.079 248.526C377.032 248.526 380.098 249.443 382.283 251.277C384.467 253.111 385.56 255.974 385.56 259.864V274.429H378.525ZM370.621 274.809C368.598 274.809 366.864 274.477 365.418 273.813C363.971 273.117 362.863 272.184 362.093 271.013C361.32 269.843 360.935 268.53 360.935 267.076C360.935 265.557 361.304 264.229 362.043 263.09C362.814 261.952 364.019 261.066 365.659 260.434C367.296 259.769 369.431 259.437 372.067 259.437H378.958V263.755H372.887C371.118 263.755 369.898 264.039 369.224 264.609C368.58 265.178 368.26 265.89 368.26 266.744C368.26 267.692 368.629 268.452 369.369 269.021C370.139 269.559 371.184 269.827 372.502 269.827C373.754 269.827 374.876 269.543 375.874 268.973C376.869 268.373 377.592 267.503 378.043 266.364L379.199 269.78C378.653 271.424 377.658 272.674 376.212 273.528C374.766 274.382 372.9 274.809 370.621 274.809ZM401.755 274.809C399.314 274.809 397.116 274.271 395.153 273.196C393.196 272.089 391.636 270.555 390.479 268.594C389.356 266.633 388.792 264.324 388.792 261.667C388.792 258.979 389.356 256.654 390.479 254.693C391.636 252.732 393.196 251.214 395.153 250.138C397.116 249.063 399.314 248.526 401.755 248.526C403.941 248.526 405.853 249 407.49 249.949C409.128 250.898 410.399 252.337 411.297 254.266C412.199 256.195 412.647 258.662 412.647 261.667C412.647 264.64 412.214 267.107 411.345 269.068C410.478 270.997 409.225 272.437 407.587 273.386C405.982 274.334 404.038 274.809 401.755 274.809ZM403.057 268.736C404.279 268.736 405.387 268.451 406.382 267.882C407.381 267.313 408.166 266.506 408.743 265.463C409.356 264.387 409.66 263.122 409.66 261.667C409.66 260.181 409.356 258.915 408.743 257.872C408.166 256.828 407.381 256.021 406.382 255.452C405.387 254.883 404.279 254.598 403.057 254.598C401.805 254.598 400.682 254.883 399.683 255.452C398.688 256.021 397.886 256.828 397.275 257.872C396.696 258.915 396.407 260.181 396.407 261.667C396.407 263.122 396.696 264.387 397.275 265.463C397.886 266.506 398.688 267.313 399.683 267.882C400.682 268.451 401.805 268.736 403.057 268.736ZM409.851 274.429V269.211L409.996 261.62L409.515 254.076V239.227H417.032V274.429H409.851Z" fill="#0B3B2D"/>
<path fill-rule="evenodd" clip-rule="evenodd" d="M267.29 83C302.432 83 330.92 111.109 330.92 145.784C330.92 180.458 302.432 208.567 267.29 208.567C232.149 208.567 203.661 180.458 203.661 145.784C203.661 111.109 232.149 83 267.29 83ZM264.99 87.6981C257.732 88.7061 250.82 94.4614 245.454 104.087C243.898 106.879 242.493 109.964 241.27 113.295C248.565 111.485 256.58 110.419 264.99 110.254V87.6981ZM235.892 114.803C237.414 110.09 239.275 105.754 241.424 101.9C244.084 97.1281 247.24 93.0076 250.797 89.8427C231.457 95.3848 216.213 110.426 210.596 129.509C213.803 126 217.98 122.885 222.816 120.261C226.722 118.141 231.116 116.304 235.892 114.803ZM234.364 120.108C232.53 127.307 231.449 135.215 231.282 143.514H208.422C209.444 136.352 215.277 129.532 225.032 124.238C227.862 122.702 230.988 121.316 234.364 120.108ZM235.883 143.514C236.073 134.457 237.394 125.955 239.58 118.442C247.194 116.285 255.812 114.981 264.99 114.793V124.597C261.566 133.246 254.582 140.137 245.816 143.514H235.883ZM231.282 148.053H208.422C209.444 155.216 215.277 162.035 225.032 167.33C227.862 168.865 230.988 170.251 234.364 171.459C232.53 164.26 231.449 156.352 231.282 148.053ZM239.58 173.125C237.394 165.613 236.073 157.11 235.883 148.053H245.816C254.582 151.43 261.567 158.321 264.99 166.971V176.774C255.812 176.587 247.194 175.282 239.58 173.125ZM235.892 176.765C231.116 175.263 226.722 173.426 222.816 171.307C217.98 168.682 213.803 165.567 210.596 162.058C216.213 181.141 231.457 196.182 250.797 201.724C247.24 198.559 244.084 194.439 241.424 189.667C239.275 185.813 237.414 181.478 235.892 176.765ZM264.99 203.869C257.732 202.861 250.82 197.106 245.454 187.48C243.898 184.688 242.493 181.603 241.27 178.273C248.565 180.082 256.58 181.148 264.99 181.313V203.869ZM283.784 201.724C287.34 198.559 290.498 194.439 293.157 189.667C295.305 185.813 297.167 181.478 298.689 176.765C303.465 175.263 307.859 173.426 311.765 171.307C316.601 168.682 320.778 165.567 323.985 162.058C318.368 181.141 303.124 196.182 283.784 201.724ZM293.311 178.273C292.087 181.603 290.683 184.688 289.127 187.48C283.762 197.106 276.849 202.861 269.59 203.869V181.313C278.001 181.148 286.016 180.082 293.311 178.273ZM300.217 171.459C303.592 170.251 306.719 168.865 309.549 167.33C319.304 162.035 325.137 155.216 326.158 148.053H303.299C303.131 156.352 302.051 164.26 300.217 171.459ZM298.698 148.053C298.509 157.11 297.186 165.613 295.001 173.125C287.387 175.282 278.769 176.587 269.59 176.774V166.978C273.013 158.325 279.999 151.431 288.768 148.053H298.698ZM303.299 143.514H326.158C325.137 136.352 319.304 129.532 309.549 124.238C306.719 122.702 303.592 121.316 300.217 120.108C302.051 127.307 303.131 135.215 303.299 143.514ZM295.001 118.442C297.186 125.955 298.509 134.457 298.698 143.514H288.768C279.999 140.136 273.013 133.242 269.59 124.59V114.793C278.769 114.981 287.387 116.285 295.001 118.442ZM298.689 114.803C303.465 116.304 307.859 118.141 311.765 120.261C316.601 122.885 320.778 126 323.985 129.509C318.368 110.426 303.124 95.3848 283.784 89.8427C287.34 93.0076 290.498 97.1281 293.157 101.9C295.305 105.754 297.167 110.09 298.689 114.803ZM269.59 87.6981C276.849 88.7061 283.762 94.4614 289.127 104.087C290.683 106.879 292.087 109.964 293.311 113.295C286.016 111.485 278.001 110.419 269.59 110.254V87.6981Z" fill="#0B3B2D"/>
<g clip-path="url(#clip0_1_8375)">
<path d="M684.977 174.023C686.235 174.023 687.252 173.003 687.252 171.745C687.252 170.486 686.235 169.467 684.977 169.467C683.721 169.467 682.702 170.486 682.702 171.745C682.702 173.003 683.721 174.023 684.977 174.023Z" fill="#0B3B2D"/>
<path d="M565.202 182.681C564.19 182.681 563.258 182.523 562.404 182.205C561.563 181.876 560.825 181.412 560.191 180.814C559.569 180.216 559.082 179.514 558.728 178.708C558.387 177.903 558.216 177.018 558.216 176.054C558.216 175.09 558.387 174.205 558.728 173.399C559.082 172.594 559.575 171.892 560.209 171.294C560.843 170.696 561.587 170.238 562.441 169.921C563.294 169.591 564.233 169.426 565.257 169.426C566.391 169.426 567.409 169.616 568.311 169.994C569.226 170.372 569.994 170.922 570.616 171.642L568.714 173.399C568.251 172.911 567.745 172.551 567.196 172.319C566.647 172.075 566.05 171.953 565.404 171.953C564.782 171.953 564.215 172.051 563.703 172.246C563.191 172.441 562.745 172.722 562.367 173.088C562.002 173.454 561.715 173.887 561.508 174.388C561.313 174.888 561.215 175.444 561.215 176.054C561.215 176.652 561.313 177.201 561.508 177.702C561.715 178.202 562.002 178.641 562.367 179.02C562.745 179.386 563.184 179.667 563.684 179.862C564.196 180.057 564.757 180.155 565.367 180.155C565.952 180.155 566.519 180.063 567.068 179.88C567.629 179.685 568.171 179.361 568.696 178.91L570.378 181.052C569.683 181.577 568.872 181.979 567.946 182.26C567.031 182.541 566.117 182.681 565.202 182.681ZM567.671 180.667V175.852H570.378V181.052L567.671 180.667ZM572.198 182.462V168.877H575.051V182.462H572.198ZM581.649 182.608C580.601 182.608 579.668 182.388 578.851 181.949C578.046 181.51 577.406 180.912 576.931 180.155C576.467 179.386 576.236 178.513 576.236 177.537C576.236 176.548 576.467 175.676 576.931 174.919C577.406 174.15 578.046 173.552 578.851 173.125C579.668 172.685 580.601 172.466 581.649 172.466C582.686 172.466 583.612 172.685 584.429 173.125C585.246 173.552 585.886 174.144 586.35 174.9C586.813 175.657 587.045 176.536 587.045 177.537C587.045 178.513 586.813 179.386 586.35 180.155C585.886 180.912 585.246 181.51 584.429 181.949C583.612 182.388 582.686 182.608 581.649 182.608ZM581.649 180.265C582.125 180.265 582.552 180.155 582.93 179.935C583.307 179.715 583.606 179.404 583.826 179.001C584.045 178.586 584.155 178.098 584.155 177.537C584.155 176.963 584.045 176.475 583.826 176.072C583.606 175.669 583.307 175.358 582.93 175.138C582.552 174.919 582.125 174.809 581.649 174.809C581.174 174.809 580.747 174.919 580.369 175.138C579.991 175.358 579.686 175.669 579.455 176.072C579.235 176.475 579.125 176.963 579.125 177.537C579.125 178.098 579.235 178.586 579.455 179.001C579.686 179.404 579.991 179.715 580.369 179.935C580.747 180.155 581.174 180.265 581.649 180.265ZM594.036 182.608C593.17 182.608 592.427 182.425 591.805 182.059C591.183 181.693 590.708 181.137 590.378 180.393C590.049 179.636 589.884 178.684 589.884 177.537C589.884 176.377 590.055 175.425 590.396 174.681C590.75 173.936 591.238 173.381 591.86 173.015C592.482 172.649 593.207 172.466 594.036 172.466C594.963 172.466 595.792 172.673 596.523 173.088C597.267 173.503 597.853 174.089 598.279 174.846C598.718 175.602 598.938 176.499 598.938 177.537C598.938 178.562 598.718 179.453 598.279 180.21C597.853 180.966 597.267 181.558 596.523 181.986C595.792 182.4 594.963 182.608 594.036 182.608ZM588.22 182.462V168.877H591.073V174.608L590.891 177.518L590.945 180.448V182.462H588.22ZM593.542 180.265C594.018 180.265 594.438 180.155 594.804 179.935C595.183 179.715 595.481 179.404 595.7 179.001C595.932 178.586 596.048 178.098 596.048 177.537C596.048 176.963 595.932 176.475 595.7 176.072C595.481 175.669 595.183 175.358 594.804 175.138C594.438 174.919 594.018 174.809 593.542 174.809C593.067 174.809 592.64 174.919 592.262 175.138C591.884 175.358 591.586 175.669 591.366 176.072C591.146 176.475 591.037 176.963 591.037 177.537C591.037 178.098 591.146 178.586 591.366 179.001C591.586 179.404 591.884 179.715 592.262 179.935C592.64 180.155 593.067 180.265 593.542 180.265ZM605.991 182.462V180.539L605.808 180.118V176.676C605.808 176.066 605.619 175.59 605.241 175.248C604.875 174.907 604.308 174.736 603.54 174.736C603.016 174.736 602.497 174.821 601.985 174.992C601.486 175.151 601.059 175.37 600.705 175.651L599.681 173.656C600.218 173.277 600.863 172.984 601.619 172.777C602.375 172.569 603.144 172.466 603.924 172.466C605.424 172.466 606.589 172.82 607.417 173.527C608.247 174.235 608.661 175.34 608.661 176.841V182.462H605.991ZM602.991 182.608C602.223 182.608 601.565 182.48 601.016 182.224C600.468 181.955 600.047 181.595 599.754 181.143C599.462 180.692 599.315 180.185 599.315 179.624C599.315 179.038 599.455 178.525 599.736 178.086C600.028 177.647 600.486 177.305 601.107 177.061C601.73 176.804 602.54 176.676 603.54 176.676H606.155V178.342H603.851C603.18 178.342 602.717 178.452 602.461 178.672C602.217 178.892 602.095 179.166 602.095 179.496C602.095 179.862 602.235 180.155 602.516 180.374C602.809 180.582 603.205 180.686 603.705 180.686C604.18 180.686 604.607 180.576 604.985 180.356C605.363 180.124 605.637 179.789 605.808 179.349L606.247 180.667C606.04 181.302 605.661 181.784 605.113 182.114C604.564 182.443 603.857 182.608 602.991 182.608ZM610.512 182.462V168.877H613.365V182.462H610.512ZM615.483 182.462V169.646H617.933L625.487 178.873H624.298V169.646H627.224V182.462H624.792L617.22 173.234H618.409V182.462H615.483ZM634.002 182.608C632.953 182.608 632.021 182.388 631.204 181.949C630.4 181.51 629.759 180.912 629.284 180.155C628.82 179.386 628.589 178.513 628.589 177.537C628.589 176.548 628.82 175.676 629.284 174.919C629.759 174.15 630.4 173.552 631.204 173.125C632.021 172.685 632.953 172.466 634.002 172.466C635.038 172.466 635.966 172.685 636.783 173.125C637.599 173.552 638.239 174.144 638.703 174.9C639.166 175.657 639.398 176.536 639.398 177.537C639.398 178.513 639.166 179.386 638.703 180.155C638.239 180.912 637.599 181.51 636.783 181.949C635.966 182.388 635.038 182.608 634.002 182.608ZM634.002 180.265C634.478 180.265 634.905 180.155 635.283 179.935C635.66 179.715 635.959 179.404 636.179 179.001C636.399 178.586 636.508 178.098 636.508 177.537C636.508 176.963 636.399 176.475 636.179 176.072C635.959 175.669 635.66 175.358 635.283 175.138C634.905 174.919 634.478 174.809 634.002 174.809C633.527 174.809 633.1 174.919 632.722 175.138C632.345 175.358 632.039 175.669 631.808 176.072C631.588 176.475 631.479 176.963 631.479 177.537C631.479 178.098 631.588 178.586 631.808 179.001C632.039 179.404 632.345 179.715 632.722 179.935C633.1 180.155 633.527 180.265 634.002 180.265ZM653.175 172.466C653.955 172.466 654.643 172.624 655.242 172.942C655.851 173.247 656.326 173.723 656.668 174.37C657.021 175.004 657.199 175.822 657.199 176.823V182.462H654.345V177.262C654.345 176.469 654.181 175.883 653.852 175.505C653.523 175.126 653.059 174.937 652.462 174.937C652.046 174.937 651.675 175.035 651.346 175.23C651.017 175.413 650.761 175.694 650.578 176.072C650.395 176.45 650.303 176.933 650.303 177.518V182.462H647.451V177.262C647.451 176.469 647.286 175.883 646.956 175.505C646.639 175.126 646.182 174.937 645.585 174.937C645.169 174.937 644.799 175.035 644.469 175.23C644.14 175.413 643.884 175.694 643.701 176.072C643.518 176.45 643.427 176.933 643.427 177.518V182.462H640.574V172.612H643.299V175.303L642.787 174.516C643.128 173.845 643.61 173.338 644.232 172.996C644.865 172.643 645.585 172.466 646.39 172.466C647.291 172.466 648.078 172.697 648.749 173.161C649.431 173.613 649.883 174.308 650.102 175.248L649.096 174.974C649.425 174.205 649.95 173.594 650.669 173.143C651.401 172.691 652.236 172.466 653.175 172.466ZM665.06 182.462V180.539L664.877 180.118V176.676C664.877 176.066 664.688 175.59 664.31 175.248C663.944 174.907 663.378 174.736 662.609 174.736C662.084 174.736 661.567 174.821 661.055 174.992C660.555 175.151 660.127 175.37 659.774 175.651L658.75 173.656C659.286 173.277 659.932 172.984 660.689 172.777C661.444 172.569 662.212 172.466 662.993 172.466C664.493 172.466 665.657 172.82 666.486 173.527C667.315 174.235 667.73 175.34 667.73 176.841V182.462H665.06ZM662.06 182.608C661.292 182.608 660.634 182.48 660.085 182.224C659.537 181.955 659.116 181.595 658.823 181.143C658.53 180.692 658.384 180.185 658.384 179.624C658.384 179.038 658.524 178.525 658.805 178.086C659.097 177.647 659.555 177.305 660.177 177.061C660.798 176.804 661.609 176.676 662.609 176.676H665.224V178.342H662.92C662.249 178.342 661.786 178.452 661.53 178.672C661.286 178.892 661.164 179.166 661.164 179.496C661.164 179.862 661.304 180.155 661.585 180.374C661.877 180.582 662.274 180.686 662.774 180.686C663.249 180.686 663.675 180.576 664.054 180.356C664.432 180.124 664.706 179.789 664.877 179.349L665.316 180.667C665.109 181.302 664.731 181.784 664.182 182.114C663.633 182.443 662.925 182.608 662.06 182.608ZM673.876 182.608C672.95 182.608 672.115 182.4 671.371 181.986C670.628 181.558 670.036 180.966 669.597 180.21C669.17 179.453 668.956 178.562 668.956 177.537C668.956 176.499 669.17 175.602 669.597 174.846C670.036 174.089 670.628 173.503 671.371 173.088C672.115 172.673 672.95 172.466 673.876 172.466C674.706 172.466 675.431 172.649 676.053 173.015C676.674 173.381 677.157 173.936 677.498 174.681C677.84 175.425 678.01 176.377 678.01 177.537C678.01 178.684 677.845 179.636 677.516 180.393C677.187 181.137 676.711 181.693 676.09 182.059C675.48 182.425 674.742 182.608 673.876 182.608ZM674.37 180.265C674.834 180.265 675.255 180.155 675.632 179.935C676.011 179.715 676.309 179.404 676.528 179.001C676.761 178.586 676.876 178.098 676.876 177.537C676.876 176.963 676.761 176.475 676.528 176.072C676.309 175.669 676.011 175.358 675.632 175.138C675.255 174.919 674.834 174.809 674.37 174.809C673.895 174.809 673.469 174.919 673.09 175.138C672.712 175.358 672.408 175.669 672.176 176.072C671.956 176.475 671.847 176.963 671.847 177.537C671.847 178.098 671.956 178.586 672.176 179.001C672.408 179.404 672.712 179.715 673.09 179.935C673.469 180.155 673.895 180.265 674.37 180.265ZM676.949 182.462V180.448L677.004 177.518L676.821 174.608V168.877H679.674V182.462H676.949Z" fill="#0B3B2D"/>
<path fill-rule="evenodd" clip-rule="evenodd" d="M535.986 162C543.71 162 549.972 168.268 549.972 176C549.972 183.732 543.71 190 535.986 190C528.262 190 522 183.732 522 176C522 168.268 528.262 162 535.986 162ZM535.48 163.048C533.885 163.272 532.366 164.556 531.186 166.702C530.844 167.325 530.535 168.013 530.266 168.755C531.87 168.352 533.632 168.114 535.48 168.077V163.048ZM529.084 169.092C529.419 168.041 529.828 167.074 530.3 166.214C530.885 165.15 531.579 164.232 532.361 163.526C528.11 164.762 524.759 168.116 523.524 172.371C524.229 171.588 525.147 170.894 526.21 170.309C527.069 169.836 528.035 169.426 529.084 169.092ZM528.748 170.275C528.346 171.88 528.108 173.643 528.071 175.494H523.047C523.271 173.897 524.553 172.376 526.697 171.196C527.319 170.853 528.007 170.544 528.748 170.275ZM529.083 175.494C529.124 173.474 529.415 171.578 529.895 169.903C531.569 169.422 533.463 169.131 535.48 169.09V171.276C534.728 173.204 533.193 174.741 531.266 175.494H529.083ZM528.071 176.506H523.047C523.271 178.103 524.553 179.624 526.697 180.804C527.319 181.147 528.007 181.456 528.748 181.725C528.346 180.12 528.108 178.357 528.071 176.506ZM529.895 182.097C529.415 180.422 529.124 178.526 529.083 176.506H531.266C533.193 177.259 534.728 178.796 535.48 180.724V182.911C533.463 182.869 531.569 182.578 529.895 182.097ZM529.084 182.908C528.035 182.574 527.069 182.164 526.21 181.691C525.147 181.106 524.229 180.411 523.524 179.629C524.759 183.884 528.11 187.238 532.361 188.474C531.579 187.768 530.885 186.85 530.3 185.785C529.828 184.926 529.419 183.959 529.084 182.908ZM535.48 188.952C533.885 188.728 532.366 187.444 531.186 185.298C530.844 184.675 530.535 183.987 530.266 183.245C531.87 183.648 533.632 183.886 535.48 183.923V188.952ZM539.611 188.474C540.393 187.768 541.087 186.85 541.672 185.785C542.144 184.926 542.553 183.959 542.888 182.908C543.937 182.574 544.903 182.164 545.762 181.691C546.825 181.106 547.743 180.411 548.448 179.629C547.213 183.884 543.862 187.238 539.611 188.474ZM541.705 183.245C541.436 183.987 541.128 184.675 540.786 185.298C539.606 187.444 538.087 188.728 536.491 188.952V183.923C538.34 183.886 540.102 183.648 541.705 183.245ZM543.223 181.725C543.965 181.456 544.652 181.147 545.274 180.804C547.419 179.624 548.701 178.103 548.925 176.506H543.901C543.864 178.357 543.626 180.12 543.223 181.725ZM542.889 176.506C542.848 178.526 542.557 180.422 542.077 182.097C540.403 182.578 538.509 182.869 536.491 182.911V180.726C537.244 178.797 538.779 177.259 540.707 176.506H542.889ZM543.901 175.494H548.925C548.701 173.897 547.419 172.376 545.274 171.196C544.652 170.853 543.965 170.544 543.223 170.275C543.626 171.88 543.864 173.643 543.901 175.494ZM542.077 169.903C542.557 171.578 542.848 173.474 542.889 175.494H540.707C538.779 174.741 537.244 173.203 536.491 171.274V169.09C538.509 169.131 540.403 169.422 542.077 169.903ZM542.888 169.092C543.937 169.426 544.903 169.836 545.762 170.309C546.825 170.894 547.743 171.588 548.448 172.371C547.213 168.116 543.862 164.762 539.611 163.526C540.393 164.232 541.087 165.15 541.672 166.214C542.144 167.074 542.553 168.041 542.888 169.092ZM536.491 163.048C538.087 163.272 539.606 164.556 540.786 166.702C541.128 167.325 541.436 168.013 541.705 168.755C540.102 168.352 538.34 168.114 536.491 168.077V163.048Z" fill="#0B3B2D"/>
</g>
<defs>
<clipPath id="clip0_1_8375">
<rect width="165.511" height="28" fill="white" transform="translate(522 162)"/>
</clipPath>
</defs>
</svg>
