<svg width="28" height="28" viewBox="0 0 28 28" fill="none" xmlns="http://www.w3.org/2000/svg">
<path d="M2.27734 13.6667C2.27734 9.37163 2.27734 7.22412 3.61164 5.88983C4.94593 4.55554 7.09344 4.55554 11.3885 4.55554H15.944C20.239 4.55554 22.3865 4.55554 23.7208 5.88983C25.0551 7.22412 25.0551 9.37163 25.0551 13.6667V15.9444C25.0551 20.2394 25.0551 22.387 23.7208 23.7212C22.3865 25.0555 20.239 25.0555 15.944 25.0555H11.3885C7.09344 25.0555 4.94593 25.0555 3.61164 23.7212C2.27734 22.387 2.27734 20.2394 2.27734 15.9444V13.6667Z" stroke="#4B4B4B" stroke-width="2.5"/>
<path d="M7.97266 4.5555V2.84717" stroke="#4B4B4B" stroke-width="2.5" stroke-linecap="round"/>
<path d="M19.3613 4.5555V2.84717" stroke="#4B4B4B" stroke-width="2.5" stroke-linecap="round"/>
<path d="M2.84766 10.25H24.4865" stroke="#4B4B4B" stroke-width="2.5" stroke-linecap="round"/>
</svg>
