<svg width="20" height="20" viewBox="0 0 20 20" fill="none" xmlns="http://www.w3.org/2000/svg">
<g id="20 / General / Add">
<path id="Vector" d="M10.832 4.16683C10.832 3.70659 10.4589 3.3335 9.9987 3.3335C9.53846 3.3335 9.16536 3.70659 9.16536 4.16683V9.16683H4.16536C3.70513 9.16683 3.33203 9.53992 3.33203 10.0002C3.33203 10.4604 3.70513 10.8335 4.16536 10.8335H9.16536V15.8335C9.16536 16.2937 9.53846 16.6668 9.9987 16.6668C10.4589 16.6668 10.832 16.2937 10.832 15.8335V10.8335H15.832C16.2923 10.8335 16.6654 10.4604 16.6654 10.0002C16.6654 9.53993 16.2923 9.16683 15.832 9.16683H10.832V4.16683Z" fill="#112211"/>
</g>
</svg>
