<svg width="56" height="56" viewBox="0 0 56 56" fill="none" xmlns="http://www.w3.org/2000/svg">
<path d="M43.0931 52.5006C42.7247 52.502 42.3653 52.3872 42.066 52.1724L27.9993 41.9743L13.9326 52.1724C13.6321 52.3904 13.27 52.5072 12.8988 52.5058C12.5275 52.5045 12.1663 52.3851 11.8674 52.1649C11.5684 51.9448 11.3473 51.6353 11.2358 51.2811C11.1244 50.927 11.1284 50.5466 11.2474 50.1949L16.7337 33.9451L2.51493 24.1943C2.20694 23.9833 1.97449 23.6794 1.85154 23.3269C1.72859 22.9744 1.72158 22.5919 1.83154 22.2351C1.9415 21.8784 2.16266 21.5661 2.46272 21.344C2.76277 21.1219 3.12599 21.0015 3.49931 21.0006H21.0409L26.3346 4.70916C26.4487 4.35744 26.6712 4.05087 26.9702 3.83344C27.2693 3.61602 27.6296 3.4989 27.9993 3.4989C28.3691 3.4989 28.7293 3.61602 29.0284 3.83344C29.3274 4.05087 29.55 4.35744 29.664 4.70916L34.9578 21.006H52.4993C52.8731 21.0059 53.2371 21.1254 53.5381 21.347C53.839 21.5687 54.0611 21.8809 54.1717 22.238C54.2824 22.595 54.2758 22.9781 54.153 23.3311C54.0302 23.6841 53.7975 23.9885 53.4892 24.1998L39.2649 33.9451L44.7479 50.1906C44.8367 50.4536 44.8617 50.734 44.8208 51.0085C44.7799 51.2831 44.6742 51.544 44.5126 51.7697C44.3509 51.9954 44.1378 52.1794 43.891 52.3064C43.6442 52.4335 43.3707 52.5001 43.0931 52.5006Z" fill="#FFCB02"/>
</svg>
