<svg xmlns="http://www.w3.org/2000/svg" width="21" height="20" viewBox="0 0 21 20" fill="none">
  <path d="M7.47057 16.8676C8.17147 17.7585 9.27256 18.3327 10.5107 18.3327C11.7489 18.3327 12.85 17.7585 13.5509 16.8676C11.5328 17.141 9.48872 17.141 7.47057 16.8676Z" fill="#A1A1A1"/>
  <path d="M16.135 7.49935V8.0861C16.135 8.79026 16.336 9.47866 16.7126 10.0646L17.6354 11.5003C18.4784 12.8117 17.8349 14.5943 16.3688 15.009C12.5335 16.0939 8.48803 16.0939 4.65271 15.009C3.18661 14.5943 2.5431 12.8117 3.38604 11.5003L4.30891 10.0646C4.68551 9.47866 4.88647 8.79026 4.88647 8.0861V7.49935C4.88647 4.27769 7.40454 1.66602 10.5107 1.66602C13.6169 1.66602 16.135 4.27769 16.135 7.49935Z" fill="#A1A1A1"/>
</svg>