<svg width="56" height="56" viewBox="0 0 56 56" fill="none" xmlns="http://www.w3.org/2000/svg">
<path d="M43.0913 51.5006L43.0892 51.5006C42.932 51.5012 42.7787 51.4524 42.6508 51.3612C42.6502 51.3608 42.6496 51.3604 42.649 51.3599L28.5863 41.1647L27.9993 40.7392L27.4124 41.1647L13.3456 51.3628L13.3455 51.3629C13.2167 51.4564 13.0615 51.5064 12.9024 51.5058C12.7433 51.5052 12.5885 51.4541 12.4604 51.3597C12.3323 51.2654 12.2375 51.1327 12.1897 50.9809C12.1419 50.8292 12.1437 50.6662 12.1947 50.5154L12.1949 50.5148L17.6811 34.265L17.9231 33.5482L17.2992 33.1204L3.08049 23.3696L3.08006 23.3693C2.94807 23.2789 2.84844 23.1486 2.79575 22.9976C2.74306 22.8465 2.74005 22.6825 2.78718 22.5297C2.8343 22.3768 2.92909 22.2429 3.05768 22.1477C3.18598 22.0528 3.34121 22.0012 3.50081 22.0006H21.0409H21.7674L21.9919 21.3096L27.2857 5.0182L27.2859 5.01759C27.3347 4.86685 27.4301 4.73546 27.5583 4.64228C27.6865 4.54909 27.8409 4.4989 27.9993 4.4989C28.1578 4.4989 28.3122 4.54909 28.4403 4.64228C28.5685 4.73546 28.6639 4.86684 28.7128 5.01758L28.7129 5.01811L34.0067 21.315L34.2311 22.006H34.9578H52.4993H52.4998C52.66 22.006 52.816 22.0572 52.945 22.1522C53.074 22.2472 53.1691 22.381 53.2166 22.534L54.1717 22.238L53.2166 22.534C53.264 22.687 53.2612 22.8512 53.2085 23.0025C53.1559 23.1538 53.0562 23.2843 52.924 23.3748L52.924 23.3748L38.6997 33.1201L38.0754 33.5479L38.3174 34.2649L43.8004 50.5103L43.8005 50.5106C43.8386 50.6233 43.8493 50.7434 43.8317 50.8611C43.8142 50.9788 43.7689 51.0906 43.6996 51.1873C43.6303 51.2841 43.539 51.3629 43.4332 51.4174C43.3275 51.4718 43.2102 51.5003 43.0913 51.5006Z" stroke="#112211" stroke-width="2"/>
</svg>
